<?xml version="1.0" encoding="UTF-8" standalone="no"?>
<!DOCTYPE svg PUBLIC "-//W3C//DTD SVG 1.1//EN"
 "http://www.w3.org/Graphics/SVG/1.1/DTD/svg11.dtd">
<!-- Generated by graphviz version 2.43.0 (0)
 -->
<!-- Title: Token采集系统架构 Pages: 1 -->
<svg width="849pt" height="780pt"
 viewBox="0.00 0.00 849.00 780.00" xmlns="http://www.w3.org/2000/svg" xmlns:xlink="http://www.w3.org/1999/xlink">
<g id="graph0" class="graph" transform="scale(1 1) rotate(0) translate(4 776)">
<title>Token采集系统架构</title>
<polygon fill="white" stroke="transparent" points="-4,4 -4,-776 845,-776 845,4 -4,4"/>
<g id="clust1" class="cluster">
<title>cluster_app</title>
<path fill="#e8f4fc" stroke="black" d="M20,-8C20,-8 467,-8 467,-8 473,-8 479,-14 479,-20 479,-20 479,-71 479,-71 479,-77 473,-83 467,-83 467,-83 20,-83 20,-83 14,-83 8,-77 8,-71 8,-71 8,-20 8,-20 8,-14 14,-8 20,-8"/>
<text text-anchor="middle" x="243.5" y="-67.8" font-family="WenQuanYi Zen Hei" font-size="14.00" fill="#006ebd">第四层：数据应用层</text>
</g>
<g id="clust2" class="cluster">
<title>cluster_process</title>
<path fill="#d4edfc" stroke="black" d="M188,-91C188,-91 309,-91 309,-91 315,-91 321,-97 321,-103 321,-103 321,-370 321,-370 321,-376 315,-382 309,-382 309,-382 188,-382 188,-382 182,-382 176,-376 176,-370 176,-370 176,-103 176,-103 176,-97 182,-91 188,-91"/>
<text text-anchor="middle" x="248.5" y="-366.8" font-family="WenQuanYi Zen Hei" font-size="14.00" fill="#006ebd">第三层：数据处理层</text>
</g>
<g id="clust3" class="cluster">
<title>cluster_collect</title>
<path fill="#c0e2fa" stroke="black" d="M188,-390C188,-390 309,-390 309,-390 315,-390 321,-396 321,-402 321,-402 321,-669 321,-669 321,-675 315,-681 309,-681 309,-681 188,-681 188,-681 182,-681 176,-675 176,-669 176,-669 176,-402 176,-402 176,-396 182,-390 188,-390"/>
<text text-anchor="middle" x="248.5" y="-665.8" font-family="WenQuanYi Zen Hei" font-size="14.00" fill="#006ebd">第二层：数据采集层</text>
</g>
<g id="clust4" class="cluster">
<title>cluster_source</title>
<path fill="#acd6f8" stroke="black" d="M102,-689C102,-689 399,-689 399,-689 405,-689 411,-695 411,-701 411,-701 411,-752 411,-752 411,-758 405,-764 399,-764 399,-764 102,-764 102,-764 96,-764 90,-758 90,-752 90,-752 90,-701 90,-701 90,-695 96,-689 102,-689"/>
<text text-anchor="middle" x="250.5" y="-748.8" font-family="WenQuanYi Zen Hei" font-size="14.00" fill="#006ebd">第一层：数据源层</text>
</g>
<g id="clust5" class="cluster">
<title>cluster_support</title>
<path fill="#fff3cd" stroke="black" d="M431,-689C431,-689 821,-689 821,-689 827,-689 833,-695 833,-701 833,-701 833,-752 833,-752 833,-758 827,-764 821,-764 821,-764 431,-764 431,-764 425,-764 419,-758 419,-752 419,-752 419,-701 419,-701 419,-695 425,-689 431,-689"/>
<text text-anchor="middle" x="626" y="-748.8" font-family="WenQuanYi Zen Hei" font-size="14.00" fill="#856404">支撑体系</text>
</g>
<!-- app1 -->
<g id="node1" class="node">
<title>app1</title>
<path fill="#c93832" stroke="black" d="M459.5,-52C459.5,-52 408.5,-52 408.5,-52 402.5,-52 396.5,-46 396.5,-40 396.5,-40 396.5,-28 396.5,-28 396.5,-22 402.5,-16 408.5,-16 408.5,-16 459.5,-16 459.5,-16 465.5,-16 471.5,-22 471.5,-28 471.5,-28 471.5,-40 471.5,-40 471.5,-46 465.5,-52 459.5,-52"/>
<text text-anchor="middle" x="434" y="-37.4" font-family="WenQuanYi Zen Hei" font-size="12.00" fill="white">Token统计</text>
<text text-anchor="middle" x="434" y="-24.4" font-family="WenQuanYi Zen Hei" font-size="12.00" fill="white">Dashboard</text>
</g>
<!-- app2 -->
<g id="node2" class="node">
<title>app2</title>
<path fill="#c93832" stroke="black" d="M366.5,-52C366.5,-52 315.5,-52 315.5,-52 309.5,-52 303.5,-46 303.5,-40 303.5,-40 303.5,-28 303.5,-28 303.5,-22 309.5,-16 315.5,-16 315.5,-16 366.5,-16 366.5,-16 372.5,-16 378.5,-22 378.5,-28 378.5,-28 378.5,-40 378.5,-40 378.5,-46 372.5,-52 366.5,-52"/>
<text text-anchor="middle" x="341" y="-37.4" font-family="WenQuanYi Zen Hei" font-size="12.00" fill="white">成本分析</text>
<text text-anchor="middle" x="341" y="-24.4" font-family="WenQuanYi Zen Hei" font-size="12.00" fill="white">Dashboard</text>
</g>
<!-- app3 -->
<g id="node3" class="node">
<title>app3</title>
<path fill="#c93832" stroke="black" d="M273.5,-52C273.5,-52 222.5,-52 222.5,-52 216.5,-52 210.5,-46 210.5,-40 210.5,-40 210.5,-28 210.5,-28 210.5,-22 216.5,-16 222.5,-16 222.5,-16 273.5,-16 273.5,-16 279.5,-16 285.5,-22 285.5,-28 285.5,-28 285.5,-40 285.5,-40 285.5,-46 279.5,-52 273.5,-52"/>
<text text-anchor="middle" x="248" y="-37.4" font-family="WenQuanYi Zen Hei" font-size="12.00" fill="white">效果评估</text>
<text text-anchor="middle" x="248" y="-24.4" font-family="WenQuanYi Zen Hei" font-size="12.00" fill="white">Dashboard</text>
</g>
<!-- app4 -->
<g id="node4" class="node">
<title>app4</title>
<path fill="#c93832" stroke="black" d="M180.5,-52C180.5,-52 127.5,-52 127.5,-52 121.5,-52 115.5,-46 115.5,-40 115.5,-40 115.5,-28 115.5,-28 115.5,-22 121.5,-16 127.5,-16 127.5,-16 180.5,-16 180.5,-16 186.5,-16 192.5,-22 192.5,-28 192.5,-28 192.5,-40 192.5,-40 192.5,-46 186.5,-52 180.5,-52"/>
<text text-anchor="middle" x="154" y="-30.9" font-family="WenQuanYi Zen Hei" font-size="12.00" fill="white">可视化报表</text>
</g>
<!-- app5 -->
<g id="node5" class="node">
<title>app5</title>
<path fill="#c93832" stroke="black" d="M85.5,-52C85.5,-52 28.5,-52 28.5,-52 22.5,-52 16.5,-46 16.5,-40 16.5,-40 16.5,-28 16.5,-28 16.5,-22 22.5,-16 28.5,-16 28.5,-16 85.5,-16 85.5,-16 91.5,-16 97.5,-22 97.5,-28 97.5,-28 97.5,-40 97.5,-40 97.5,-46 91.5,-52 85.5,-52"/>
<text text-anchor="middle" x="57" y="-30.9" font-family="WenQuanYi Zen Hei" font-size="12.00" fill="white">数据查询API</text>
</g>
<!-- proc1 -->
<g id="node6" class="node">
<title>proc1</title>
<path fill="#006ebd" stroke="black" d="M268.5,-351C268.5,-351 227.5,-351 227.5,-351 221.5,-351 215.5,-345 215.5,-339 215.5,-339 215.5,-327 215.5,-327 215.5,-321 221.5,-315 227.5,-315 227.5,-315 268.5,-315 268.5,-315 274.5,-315 280.5,-321 280.5,-327 280.5,-327 280.5,-339 280.5,-339 280.5,-345 274.5,-351 268.5,-351"/>
<text text-anchor="middle" x="248" y="-329.9" font-family="WenQuanYi Zen Hei" font-size="12.00" fill="white">数据清洗</text>
</g>
<!-- proc2 -->
<g id="node7" class="node">
<title>proc2</title>
<path fill="#006ebd" stroke="black" d="M268.5,-279C268.5,-279 227.5,-279 227.5,-279 221.5,-279 215.5,-273 215.5,-267 215.5,-267 215.5,-255 215.5,-255 215.5,-249 221.5,-243 227.5,-243 227.5,-243 268.5,-243 268.5,-243 274.5,-243 280.5,-249 280.5,-255 280.5,-255 280.5,-267 280.5,-267 280.5,-273 274.5,-279 268.5,-279"/>
<text text-anchor="middle" x="248" y="-257.9" font-family="WenQuanYi Zen Hei" font-size="12.00" fill="white">数据转换</text>
</g>
<!-- proc1&#45;&gt;proc2 -->
<g id="edge9" class="edge">
<title>proc1&#45;&gt;proc2</title>
<path fill="none" stroke="black" d="M248,-314.83C248,-314.83 248,-289.41 248,-289.41"/>
<polygon fill="black" stroke="black" points="251.5,-289.41 248,-279.41 244.5,-289.41 251.5,-289.41"/>
</g>
<!-- proc3 -->
<g id="node8" class="node">
<title>proc3</title>
<path fill="#006ebd" stroke="black" d="M268.5,-207C268.5,-207 227.5,-207 227.5,-207 221.5,-207 215.5,-201 215.5,-195 215.5,-195 215.5,-183 215.5,-183 215.5,-177 221.5,-171 227.5,-171 227.5,-171 268.5,-171 268.5,-171 274.5,-171 280.5,-177 280.5,-183 280.5,-183 280.5,-195 280.5,-195 280.5,-201 274.5,-207 268.5,-207"/>
<text text-anchor="middle" x="248" y="-185.9" font-family="WenQuanYi Zen Hei" font-size="12.00" fill="white">数据入库</text>
</g>
<!-- proc2&#45;&gt;proc3 -->
<g id="edge10" class="edge">
<title>proc2&#45;&gt;proc3</title>
<path fill="none" stroke="black" d="M248,-242.83C248,-242.83 248,-217.41 248,-217.41"/>
<polygon fill="black" stroke="black" points="251.5,-217.41 248,-207.41 244.5,-217.41 251.5,-217.41"/>
</g>
<!-- proc4 -->
<g id="node9" class="node">
<title>proc4</title>
<path fill="#006ebd" stroke="black" d="M268.5,-135C268.5,-135 227.5,-135 227.5,-135 221.5,-135 215.5,-129 215.5,-123 215.5,-123 215.5,-111 215.5,-111 215.5,-105 221.5,-99 227.5,-99 227.5,-99 268.5,-99 268.5,-99 274.5,-99 280.5,-105 280.5,-111 280.5,-111 280.5,-123 280.5,-123 280.5,-129 274.5,-135 268.5,-135"/>
<text text-anchor="middle" x="248" y="-113.9" font-family="WenQuanYi Zen Hei" font-size="12.00" fill="white">数据汇总</text>
</g>
<!-- proc3&#45;&gt;proc4 -->
<g id="edge11" class="edge">
<title>proc3&#45;&gt;proc4</title>
<path fill="none" stroke="black" d="M248,-170.83C248,-170.83 248,-145.41 248,-145.41"/>
<polygon fill="black" stroke="black" points="251.5,-145.41 248,-135.41 244.5,-145.41 251.5,-145.41"/>
</g>
<!-- proc4&#45;&gt;app1 -->
<g id="edge12" class="edge">
<title>proc4&#45;&gt;app1</title>
<path fill="none" stroke="black" d="M280.6,-123C329.2,-123 415,-123 415,-123 415,-123 415,-62.01 415,-62.01"/>
<polygon fill="black" stroke="black" points="418.5,-62.01 415,-52.01 411.5,-62.01 418.5,-62.01"/>
</g>
<!-- proc4&#45;&gt;app2 -->
<g id="edge13" class="edge">
<title>proc4&#45;&gt;app2</title>
<path fill="none" stroke="black" d="M280.87,-111C296.36,-111 311.5,-111 311.5,-111 311.5,-111 311.5,-62.25 311.5,-62.25"/>
<polygon fill="black" stroke="black" points="315,-62.25 311.5,-52.25 308,-62.25 315,-62.25"/>
</g>
<!-- proc4&#45;&gt;app3 -->
<g id="edge14" class="edge">
<title>proc4&#45;&gt;app3</title>
<path fill="none" stroke="black" d="M248,-98.99C248,-98.99 248,-62.26 248,-62.26"/>
<polygon fill="black" stroke="black" points="251.5,-62.26 248,-52.26 244.5,-62.26 251.5,-62.26"/>
</g>
<!-- proc4&#45;&gt;app4 -->
<g id="edge15" class="edge">
<title>proc4&#45;&gt;app4</title>
<path fill="none" stroke="black" d="M215.49,-111C201.05,-111 187.25,-111 187.25,-111 187.25,-111 187.25,-62.25 187.25,-62.25"/>
<polygon fill="black" stroke="black" points="190.75,-62.25 187.25,-52.25 183.75,-62.25 190.75,-62.25"/>
</g>
<!-- proc4&#45;&gt;app5 -->
<g id="edge16" class="edge">
<title>proc4&#45;&gt;app5</title>
<path fill="none" stroke="black" d="M215.17,-123C160.56,-123 57,-123 57,-123 57,-123 57,-62.01 57,-62.01"/>
<polygon fill="black" stroke="black" points="60.5,-62.01 57,-52.01 53.5,-62.01 60.5,-62.01"/>
</g>
<!-- col1 -->
<g id="node10" class="node">
<title>col1</title>
<path fill="#006ebd" stroke="black" d="M269.5,-650C269.5,-650 226.5,-650 226.5,-650 220.5,-650 214.5,-644 214.5,-638 214.5,-638 214.5,-626 214.5,-626 214.5,-620 220.5,-614 226.5,-614 226.5,-614 269.5,-614 269.5,-614 275.5,-614 281.5,-620 281.5,-626 281.5,-626 281.5,-638 281.5,-638 281.5,-644 275.5,-650 269.5,-650"/>
<text text-anchor="middle" x="248" y="-628.9" font-family="WenQuanYi Zen Hei" font-size="12.00" fill="white">SFTP接收</text>
</g>
<!-- col2 -->
<g id="node11" class="node">
<title>col2</title>
<path fill="#006ebd" stroke="black" d="M268.5,-578C268.5,-578 227.5,-578 227.5,-578 221.5,-578 215.5,-572 215.5,-566 215.5,-566 215.5,-554 215.5,-554 215.5,-548 221.5,-542 227.5,-542 227.5,-542 268.5,-542 268.5,-542 274.5,-542 280.5,-548 280.5,-554 280.5,-554 280.5,-566 280.5,-566 280.5,-572 274.5,-578 268.5,-578"/>
<text text-anchor="middle" x="248" y="-556.9" font-family="WenQuanYi Zen Hei" font-size="12.00" fill="white">文件解析</text>
</g>
<!-- col1&#45;&gt;col2 -->
<g id="edge5" class="edge">
<title>col1&#45;&gt;col2</title>
<path fill="none" stroke="black" d="M248,-613.83C248,-613.83 248,-588.41 248,-588.41"/>
<polygon fill="black" stroke="black" points="251.5,-588.41 248,-578.41 244.5,-588.41 251.5,-588.41"/>
</g>
<!-- col3 -->
<g id="node12" class="node">
<title>col3</title>
<path fill="#006ebd" stroke="black" d="M268.5,-506C268.5,-506 227.5,-506 227.5,-506 221.5,-506 215.5,-500 215.5,-494 215.5,-494 215.5,-482 215.5,-482 215.5,-476 221.5,-470 227.5,-470 227.5,-470 268.5,-470 268.5,-470 274.5,-470 280.5,-476 280.5,-482 280.5,-482 280.5,-494 280.5,-494 280.5,-500 274.5,-506 268.5,-506"/>
<text text-anchor="middle" x="248" y="-484.9" font-family="WenQuanYi Zen Hei" font-size="12.00" fill="white">文件校验</text>
</g>
<!-- col2&#45;&gt;col3 -->
<g id="edge6" class="edge">
<title>col2&#45;&gt;col3</title>
<path fill="none" stroke="black" d="M248,-541.83C248,-541.83 248,-516.41 248,-516.41"/>
<polygon fill="black" stroke="black" points="251.5,-516.41 248,-506.41 244.5,-516.41 251.5,-516.41"/>
</g>
<!-- col4 -->
<g id="node13" class="node">
<title>col4</title>
<path fill="#006ebd" stroke="black" d="M268.5,-434C268.5,-434 227.5,-434 227.5,-434 221.5,-434 215.5,-428 215.5,-422 215.5,-422 215.5,-410 215.5,-410 215.5,-404 221.5,-398 227.5,-398 227.5,-398 268.5,-398 268.5,-398 274.5,-398 280.5,-404 280.5,-410 280.5,-410 280.5,-422 280.5,-422 280.5,-428 274.5,-434 268.5,-434"/>
<text text-anchor="middle" x="248" y="-412.9" font-family="WenQuanYi Zen Hei" font-size="12.00" fill="white">回执生成</text>
</g>
<!-- col3&#45;&gt;col4 -->
<g id="edge7" class="edge">
<title>col3&#45;&gt;col4</title>
<path fill="none" stroke="black" d="M248,-469.83C248,-469.83 248,-444.41 248,-444.41"/>
<polygon fill="black" stroke="black" points="251.5,-444.41 248,-434.41 244.5,-444.41 251.5,-444.41"/>
</g>
<!-- col4&#45;&gt;proc1 -->
<g id="edge8" class="edge">
<title>col4&#45;&gt;proc1</title>
<path fill="none" stroke="black" d="M248,-397.99C248,-397.99 248,-361.26 248,-361.26"/>
<polygon fill="black" stroke="black" points="251.5,-361.26 248,-351.26 244.5,-361.26 251.5,-361.26"/>
</g>
<!-- src1 -->
<g id="node14" class="node">
<title>src1</title>
<path fill="#006ebd" stroke="black" d="M390.5,-733C390.5,-733 349.5,-733 349.5,-733 343.5,-733 337.5,-727 337.5,-721 337.5,-721 337.5,-709 337.5,-709 337.5,-703 343.5,-697 349.5,-697 349.5,-697 390.5,-697 390.5,-697 396.5,-697 402.5,-703 402.5,-709 402.5,-709 402.5,-721 402.5,-721 402.5,-727 396.5,-733 390.5,-733"/>
<text text-anchor="middle" x="370" y="-718.4" font-family="WenQuanYi Zen Hei" font-size="12.00" fill="white">总部部门</text>
<text text-anchor="middle" x="370" y="-705.4" font-family="WenQuanYi Zen Hei" font-size="12.00" fill="white">23个</text>
</g>
<!-- src1&#45;&gt;col1 -->
<!-- src2 -->
<g id="node15" class="node">
<title>src2</title>
<path fill="#006ebd" stroke="black" d="M307.5,-733C307.5,-733 266.5,-733 266.5,-733 260.5,-733 254.5,-727 254.5,-721 254.5,-721 254.5,-709 254.5,-709 254.5,-703 260.5,-697 266.5,-697 266.5,-697 307.5,-697 307.5,-697 313.5,-697 319.5,-703 319.5,-709 319.5,-709 319.5,-721 319.5,-721 319.5,-727 313.5,-733 307.5,-733"/>
<text text-anchor="middle" x="287" y="-718.4" font-family="WenQuanYi Zen Hei" font-size="12.00" fill="white">专业公司</text>
<text text-anchor="middle" x="287" y="-705.4" font-family="WenQuanYi Zen Hei" font-size="12.00" fill="white">26个</text>
</g>
<!-- src2&#45;&gt;col1 -->
<!-- src3 -->
<g id="node16" class="node">
<title>src3</title>
<path fill="#006ebd" stroke="black" d="M224,-733C224,-733 194,-733 194,-733 188,-733 182,-727 182,-721 182,-721 182,-709 182,-709 182,-703 188,-697 194,-697 194,-697 224,-697 224,-697 230,-697 236,-703 236,-709 236,-709 236,-721 236,-721 236,-727 230,-733 224,-733"/>
<text text-anchor="middle" x="209" y="-718.4" font-family="WenQuanYi Zen Hei" font-size="12.00" fill="white">省公司</text>
<text text-anchor="middle" x="209" y="-705.4" font-family="WenQuanYi Zen Hei" font-size="12.00" fill="white">31个</text>
</g>
<!-- src3&#45;&gt;col1 -->
<!-- src4 -->
<g id="node17" class="node">
<title>src4</title>
<path fill="#006ebd" stroke="black" d="M151.5,-733C151.5,-733 110.5,-733 110.5,-733 104.5,-733 98.5,-727 98.5,-721 98.5,-721 98.5,-709 98.5,-709 98.5,-703 104.5,-697 110.5,-697 110.5,-697 151.5,-697 151.5,-697 157.5,-697 163.5,-703 163.5,-709 163.5,-709 163.5,-721 163.5,-721 163.5,-727 157.5,-733 151.5,-733"/>
<text text-anchor="middle" x="131" y="-718.4" font-family="WenQuanYi Zen Hei" font-size="12.00" fill="white">直属机构</text>
<text text-anchor="middle" x="131" y="-705.4" font-family="WenQuanYi Zen Hei" font-size="12.00" fill="white">6个</text>
</g>
<!-- src4&#45;&gt;col1 -->
<!-- sup1 -->
<g id="node18" class="node">
<title>sup1</title>
<path fill="#ffc107" stroke="black" d="M812.5,-733C812.5,-733 771.5,-733 771.5,-733 765.5,-733 759.5,-727 759.5,-721 759.5,-721 759.5,-709 759.5,-709 759.5,-703 765.5,-697 771.5,-697 771.5,-697 812.5,-697 812.5,-697 818.5,-697 824.5,-703 824.5,-709 824.5,-709 824.5,-721 824.5,-721 824.5,-727 818.5,-733 812.5,-733"/>
<text text-anchor="middle" x="792" y="-711.9" font-family="WenQuanYi Zen Hei" font-size="12.00">监控告警</text>
</g>
<!-- sup2 -->
<g id="node19" class="node">
<title>sup2</title>
<path fill="#ffc107" stroke="black" d="M729.5,-733C729.5,-733 688.5,-733 688.5,-733 682.5,-733 676.5,-727 676.5,-721 676.5,-721 676.5,-709 676.5,-709 676.5,-703 682.5,-697 688.5,-697 688.5,-697 729.5,-697 729.5,-697 735.5,-697 741.5,-703 741.5,-709 741.5,-709 741.5,-721 741.5,-721 741.5,-727 735.5,-733 729.5,-733"/>
<text text-anchor="middle" x="709" y="-711.9" font-family="WenQuanYi Zen Hei" font-size="12.00">日志管理</text>
</g>
<!-- sup3 -->
<g id="node20" class="node">
<title>sup3</title>
<path fill="#ffc107" stroke="black" d="M646.5,-733C646.5,-733 605.5,-733 605.5,-733 599.5,-733 593.5,-727 593.5,-721 593.5,-721 593.5,-709 593.5,-709 593.5,-703 599.5,-697 605.5,-697 605.5,-697 646.5,-697 646.5,-697 652.5,-697 658.5,-703 658.5,-709 658.5,-709 658.5,-721 658.5,-721 658.5,-727 652.5,-733 646.5,-733"/>
<text text-anchor="middle" x="626" y="-711.9" font-family="WenQuanYi Zen Hei" font-size="12.00">配置管理</text>
</g>
<!-- sup4 -->
<g id="node21" class="node">
<title>sup4</title>
<path fill="#ffc107" stroke="black" d="M563.5,-733C563.5,-733 522.5,-733 522.5,-733 516.5,-733 510.5,-727 510.5,-721 510.5,-721 510.5,-709 510.5,-709 510.5,-703 516.5,-697 522.5,-697 522.5,-697 563.5,-697 563.5,-697 569.5,-697 575.5,-703 575.5,-709 575.5,-709 575.5,-721 575.5,-721 575.5,-727 569.5,-733 563.5,-733"/>
<text text-anchor="middle" x="543" y="-711.9" font-family="WenQuanYi Zen Hei" font-size="12.00">访问控制</text>
</g>
<!-- sup5 -->
<g id="node22" class="node">
<title>sup5</title>
<path fill="#ffc107" stroke="black" d="M480.5,-733C480.5,-733 439.5,-733 439.5,-733 433.5,-733 427.5,-727 427.5,-721 427.5,-721 427.5,-709 427.5,-709 427.5,-703 433.5,-697 439.5,-697 439.5,-697 480.5,-697 480.5,-697 486.5,-697 492.5,-703 492.5,-709 492.5,-709 492.5,-721 492.5,-721 492.5,-727 486.5,-733 480.5,-733"/>
<text text-anchor="middle" x="460" y="-711.9" font-family="WenQuanYi Zen Hei" font-size="12.00">数据加密</text>
</g>
</g>
</svg>
